<?xml version="1.0" encoding="UTF-8"?>
<svg enable-background="new 0 0 536.284 604.968" version="1.1" viewBox="0 0 536.28 604.97" xml:space="preserve" xmlns="http://www.w3.org/2000/svg">
<style type="text/css">
	.st0{fill:#999999;stroke:#000000;stroke-width:5;stroke-miterlimit:10;}
	.st1{fill:none;stroke:#808080;stroke-width:5;stroke-miterlimit:10;}
	.st2{fill:none;stroke:#000000;stroke-width:5;stroke-miterlimit:10;}
	.st3{fill:#999999;}
	.st4{fill:#808080;stroke:#808080;stroke-width:5;stroke-miterlimit:10;}
	.st5{fill:#FFFFFF;}
	.st6{fill:#E6E6E6;stroke:#E6E6E6;stroke-width:4.7877;stroke-miterlimit:10;}
	.st7{fill:#FFFFFF;stroke:#000000;stroke-width:5;stroke-miterlimit:10;}
	.st8{fill:#E6E6E6;}
	.st9{fill:#999999;stroke:#000000;stroke-width:4.5826;stroke-miterlimit:10;}
	.st10{fill:#666666;}
	.st11{fill:#6309C2;stroke:#000000;stroke-width:5;stroke-miterlimit:10;}
	.st12{fill:#4F02A8;}
	.st13{fill:#29D19D;stroke:#000000;stroke-width:5;stroke-miterlimit:10;}
	.st14{fill:#19B27F;}
	.st15{fill:#29D19D;}
	.st16{fill:none;stroke:#000000;stroke-width:4.7877;stroke-miterlimit:10;}
	.st17{fill:none;stroke:#000000;stroke-width:5;stroke-linecap:round;stroke-miterlimit:10;}
	.st18{fill:#5724C6;}
	.st19{fill:#0DD39F;}
	.st20{fill:none;stroke:#E6E6E6;stroke-width:5;stroke-miterlimit:10;}
	.st21{fill:none;stroke:#E6E6E6;stroke-width:5;stroke-linecap:round;stroke-miterlimit:10;}
	.st22{fill:#999999;stroke:#000000;stroke-width:5.5556;stroke-miterlimit:10;}
	.st23{fill:#999999;stroke:#000000;stroke-width:5.6173;stroke-miterlimit:10;}
</style>

	
		<path class="st0" d="m94.975 368.96c-19.116 0-38.002-3.488-59.634-16.707l8.865-14.506c28.278 17.28 50.074 15.178 80.239 12.272 5.335-0.515 10.853-1.047 16.676-1.494l1.305 16.949c-5.66 0.436-11.095 0.96-16.35 1.466-10.724 1.035-20.946 2.02-31.101 2.02z"/>
	
	
		<path class="st1" d="m52.509 342.36s-5.127 11.848-10.431 13.742"/>
		<path class="st1" d="m60.706 346.01s-4.307 10.862-9.619 14.426"/>
		<path class="st1" d="m69.626 348.93s-2.982 10.452-9.917 14.761"/>
		<path class="st1" d="m77.987 350.72s-1.457 8.525-7.335 15.904"/>
		<path class="st1" d="m88.754 351.83s-1.666 12.044-5.823 16.606"/>
		<path class="st1" d="m99.771 351.9s-0.997 12.104-4.997 17.104"/>
		<path class="st1" d="m110.59 351.27s-0.81 11.812-3.313 17.27"/>
		<path class="st1" d="m119.44 350.5s0.623 11.012-2.022 17.257"/>
		<path class="st1" d="m126.77 350s0 14-1 17"/>
	
	
		<path class="st2" d="m94.975 368.96c-19.116 0-38.002-3.488-59.634-16.707l8.865-14.506c28.278 17.28 50.074 15.178 80.239 12.272 5.335-0.515 10.853-1.047 16.676-1.494l1.305 16.949c-5.66 0.436-11.095 0.96-16.35 1.466-10.724 1.035-20.946 2.02-31.101 2.02z"/>
	


	
		<path class="st0" d="m406.23 365.82c-3.054 0-6.094-0.115-9.11-0.348l1.305-16.949c33.105 2.54 77.515-11.827 96.784-49.404l15.127 7.758c-10.234 19.956-27.275 36.051-49.28 46.544-16.987 8.098-36.147 12.399-54.826 12.399z"/>
	
	
		<path class="st1" d="m417.51 348.18s3.992 8.114 1.628 16.966"/>
		<path class="st1" d="m427.98 363.92s1.569-5.899-2.316-16.909"/>
		<path class="st1" d="m434.05 345.17s4.305 7.827 3.013 16.829"/>
		<path class="st1" d="m441.84 342.86s5.11 9.096 4.023 16.62"/>
		<path class="st1" d="m449.77 340s4.574 5.967 5 16"/>
		<path class="st1" d="m457.55 336.16s5.446 7.4 5.834 16.119"/>
		<path class="st1" d="m464 332.47s7.04 5.635 7.908 15.082"/>
		<path class="st1" d="m470.77 328s7 6 9 14"/>
		<path class="st1" d="m476.88 321.89s7.523 4.22 10.206 13.663"/>
		<path class="st1" d="m483.48 316.19s8.807 5.259 11.549 12.534"/>
		<path class="st1" d="m488.26 308.94s10.877 5.799 12.697 11.428"/>
		<path class="st1" d="m493.03 303.09s10.206 7.229 13.474 10.57"/>
	
	
		<path class="st2" d="m406.23 365.82c-3.054 0-6.094-0.115-9.11-0.348l1.305-16.949c33.105 2.54 77.515-11.827 96.784-49.404l15.127 7.758c-10.234 19.956-27.275 36.051-49.28 46.544-16.987 8.098-36.147 12.399-54.826 12.399z"/>
	

<path class="st3" d="m271.77 577.5c-16.845 0-30.5-13.655-30.5-30.5v-71.5h61v71.5c0 16.845-13.655 30.5-30.5 30.5z"/>
<path class="st4" d="m284.77 473v71.5c0 13.893-9.293 25.609-22 29.291 2.699 0.782 5.549 1.209 8.5 1.209 16.845 0 30.5-13.655 30.5-30.5v-71.5h-17z"/>
<path class="st5" d="m351.92 475h-160.29c-17.04 0-30.854-13.814-30.854-30.854v-139.06c0-2.531 2.052-4.583 4.583-4.583h212.83c2.531 0 4.583 2.052 4.583 4.583v139.06c1e-3 17.04-13.813 30.854-30.853 30.854z"/>
<path class="st6" d="m358.77 300.5v143.65c0 17.04-13.814 30.854-30.854 30.854h24c17.04 0 30.854-13.814 30.854-30.854v-139.06c0-2.531-2.052-4.583-4.583-4.583h-19.417z"/>
<path class="st7" d="m382.77 326c16.292 0 29.5 13.208 29.5 29.5v3.5c0 16.292-13.208 29.5-29.5 29.5v-62.5z"/>
<path class="st8" d="m382.77 388.31v-11.722c8.121-5.255 13.5-14.386 13.5-24.778v-3.5-19.814c9 5 15 14 16 26.814v3.5c0 16.292-13.208 29.5-29.5 29.5z"/>
<path class="st7" d="m241.27 503.5h-7.667c-11.23 0-20.333-9.104-20.333-20.333v-7.667h28v28z"/>
<path class="st7" d="m330.77 476v7.667c0 11.23-9.104 20.333-20.333 20.333h-7.667v-28h28z"/>
<path class="st6" d="m316.77 476v7.667c0 9.016-5.874 16.651-14 19.314v1.019h7.667c11.23 0 20.333-9.104 20.333-20.333v-7.667h-14z"/>
<path class="st0" d="m298.36 292h-53.167c-3.268 0-5.917-2.649-5.917-5.917v-0.167c0-3.268 2.649-5.917 5.917-5.917h53.167c3.268 0 5.917 2.649 5.917 5.917v0.167c0 3.268-2.649 5.917-5.917 5.917z"/>
<path class="st0" d="m376.77 175.92v23.167c0 3.268-2.649 5.917-5.917 5.917h-0.167c-3.268 0-5.917-2.649-5.917-5.917v-23.167c0-3.268 2.649-5.917 5.917-5.917h0.167c3.268 0 5.917 2.649 5.917 5.917z"/>
<path class="st9" d="m398.77 184v9c0 3.314-2.686 6-6 6s-6-2.686-6-6v-9c0-3.314 2.686-6 6-6s6 2.686 6 6z"/>
<path class="st9" d="m156.77 184v9c0 3.314-2.686 6-6 6s-6-2.686-6-6v-9c0-3.314 2.686-6 6-6s6 2.686 6 6z"/>
<path class="st0" d="m179.77 175.92v23.167c0 3.268-2.649 5.917-5.917 5.917h-0.167c-3.268 0-5.917-2.649-5.917-5.917v-23.167c0-3.268 2.649-5.917 5.917-5.917h0.167c3.268 0 5.917 2.649 5.917 5.917z"/>

	<path class="st7" d="m509.75 311.49c-3.619-0.17-7.16-1.221-10.361-3.114-4.994-2.953-8.705-7.793-10.243-13.387-1.655-6.017-0.781-12.302 2.433-17.621 1.999-3.308 4.75-5.988 8.011-7.862 2.834-1.629 6.446 0.034 7.228 3.208l2e-3 8e-3c0.527 2.14-0.403 4.382-2.306 5.493-1.779 1.039-3.281 2.512-4.376 4.325-1.727 2.858-2.237 6.217-1.438 9.459s2.814 5.978 5.67 7.705c2.86 1.729 6.219 2.236 9.459 1.438 3.242-0.799 5.978-2.814 7.705-5.67 1.078-1.784 1.682-3.763 1.789-5.787 0.119-2.237 1.619-4.158 3.795-4.694l5e-3 -1e-3c3.19-0.787 6.335 1.664 6.204 4.947-0.157 3.923-1.348 7.76-3.524 11.175-3.146 4.937-8.181 8.487-13.883 9.813-2.049 0.474-4.122 0.661-6.17 0.565z"/>

<path class="st10" d="m294.27 547.5h-45c-1.105 0-2-0.895-2-2s0.895-2 2-2h45c1.105 0 2 0.895 2 2s-0.895 2-2 2z"/>
<path class="st10" d="m294.27 528.5h-45c-1.105 0-2-0.895-2-2s0.895-2 2-2h45c1.105 0 2 0.895 2 2s-0.895 2-2 2z"/>
<path class="st10" d="m294.27 509.5h-45c-1.105 0-2-0.895-2-2s0.895-2 2-2h45c1.105 0 2 0.895 2 2s-0.895 2-2 2z"/>
<path class="st10" d="m294.27 490.5h-45c-1.105 0-2-0.895-2-2s0.895-2 2-2h45c1.105 0 2 0.895 2 2s-0.895 2-2 2z"/>
<rect class="st7" x="160.77" y="416" width="222" height="19"/>
<circle class="st11" cx="271.77" cy="425" r="16"/>
<path class="st12" d="m271.77 409c-2.124 0-4.146 0.423-6 1.174 5.861 2.375 10 8.113 10 14.826s-4.139 12.451-10 14.826c1.854 0.751 3.876 1.174 6 1.174 8.837 0 16-7.163 16-16s-7.163-16-16-16z"/>

	<path class="st13" d="m219.3 318.61h-26.061c-3.849 0-6.97-3.12-6.97-6.97v-11.03h40v11.03c1e-3 3.85-3.119 6.97-6.969 6.97z"/>
	<path class="st13" d="m350.3 318.61h-26.06c-3.849 0-6.97-3.12-6.97-6.97v-11.03h40v11.03c0 3.85-3.12 6.97-6.97 6.97z"/>


	<path class="st14" d="m213.27 309.53c0 3.849-3.12 6.97-6.97 6.97h15c3.849 0 6.97-3.12 6.97-6.97v-11.03h-15v11.03z"/>
	<path class="st14" d="m344.27 298.5v11.03c0 3.849-3.12 6.97-6.97 6.97h15c3.849 0 6.97-3.12 6.97-6.97v-11.03h-15z"/>

<path class="st16" d="m351.92 475h-160.29c-17.04 0-30.854-13.814-30.854-30.854v-139.06c0-2.531 2.052-4.583 4.583-4.583h212.83c2.531 0 4.583 2.052 4.583 4.583v139.06c1e-3 17.04-13.813 30.854-30.853 30.854z"/>
<path class="st2" d="m271.77 577.5c-16.845 0-30.5-13.655-30.5-30.5v-71.5h61v71.5c0 16.845-13.655 30.5-30.5 30.5z"/>
<line class="st17" x1="271.27" x2="271.27" y1="105.5" y2="39"/>
<circle class="st11" cx="271.77" cy="39" r="13"/>
<line class="st17" x1="258.77" x2="283.77" y1="65" y2="65"/>
<line class="st17" x1="262.27" x2="280.27" y1="76" y2="76"/>
<circle class="st7" cx="271.36" cy="188" r="83.164"/>

	<path class="st18" d="m226.43 171.73h8.964v54.53h-8.964v-54.53z"/>
	<path class="st18" d="m307.32 171.73h8.964v54.53h-8.964v-54.53z"/>
	
		<path class="st18" d="m256.62 198.93c0.029-11.153 4.41-20.164 15.578-20.164 7.896 0 12.912 4.375 13.446 11.631h8.963c-0.747-10.992-7.79-19.635-22.409-19.635-16.185 0-24.61 11.264-24.647 28.167h9.069z"/>
		<path class="st19" d="m272.2 219.32c-8.062 0-12.573-4.597-14.478-11.422h-9.309c2.524 12.009 10.582 19.318 23.893 19.318 14.193 0 21.449-7.789 22.516-19.315h-8.963c-0.747 7.256-5.549 11.419-13.659 11.419z"/>
	
	<path class="st19" d="m305.61 154.97c0-3.735 2.028-6.188 6.189-6.188 4.055 0 6.189 2.453 6.189 6.188 0 3.842-2.134 6.297-6.189 6.297-4.161 0-6.189-2.455-6.189-6.297z"/>
	<path class="st19" d="m224.72 154.97c0-3.735 2.028-6.188 6.189-6.188 4.055 0 6.189 2.453 6.189 6.188 0 3.842-2.134 6.297-6.189 6.297-4.161 0-6.189-2.455-6.189-6.297z"/>


	<path class="st20" d="m271.77 369.65c-4.92 0-8.908-3.988-8.908-8.908v-17.816c0-4.92 3.988-8.908 8.908-8.908s8.908 3.988 8.908 8.908v17.816c0 4.92-3.988 8.908-8.908 8.908z"/>
	<path class="st21" d="m289.37 354.17v6.681c0 9.716-7.877 17.593-17.593 17.593s-17.593-7.877-17.593-17.593v-6.681"/>
	<line class="st21" x1="271.52" x2="271.52" y1="379" y2="389"/>
	<line class="st21" x1="262.52" x2="280.52" y1="389" y2="389"/>

<ellipse class="st8" cx="271.77" cy="596" rx="80" ry="5"/>
<path class="st7" d="m160.27 388.5c-16.292 0-29.5-13.208-29.5-29.5v-3.5c0-16.292 13.208-29.5 29.5-29.5v62.5z"/>
<path class="st2" d="m330.77 476v7.667c0 11.23-9.104 20.333-20.333 20.333h-7.667v-28h28z"/>
<path class="st2" d="m382.77 326c16.292 0 29.5 13.208 29.5 29.5v3.5c0 16.292-13.208 29.5-29.5 29.5v-62.5z"/>
<circle class="st2" cx="271.77" cy="425" r="16"/>

	<path class="st2" d="m219.3 318.61h-26.061c-3.849 0-6.97-3.12-6.97-6.97v-11.03h40v11.03c1e-3 3.85-3.119 6.97-6.969 6.97z"/>
	<path class="st2" d="m350.3 318.61h-26.06c-3.849 0-6.97-3.12-6.97-6.97v-11.03h40v11.03c0 3.85-3.12 6.97-6.97 6.97z"/>

<circle class="st22" cx="493.27" cy="290.5" r="5"/>
<path class="st7" d="m42.453 333.56c-2.617 0.912-5.472-0.458-6.412-3.057 0.106 0.49 0.193 0.987 0.241 1.494 0.312 3.325-0.69 6.571-2.82 9.141-2.132 2.573-5.138 4.158-8.459 4.47-3.325 0.312-6.571-0.69-9.141-2.82-1.605-1.33-2.826-3-3.593-4.876-0.848-2.074-2.897-3.393-5.128-3.185h-5e-3c-3.271 0.306-5.435 3.656-4.231 6.712 1.438 3.653 3.826 6.885 7.004 9.394 4.595 3.628 10.518 5.324 16.339 4.7 2.091-0.224 4.11-0.73 6.012-1.494 3.362-1.351 6.36-3.509 8.76-6.349 3.745-4.431 5.657-10.223 5.269-16.012-0.077-1.144-0.238-2.267-0.478-3.365 0.211 2.264-1.116 4.466-3.358 5.247z"/>
<path class="st7" d="m37.895 324.64c1.842-1.287 4.233-1.164 5.93 0.125 0.124 0.094 0.279-0.062 0.19-0.189-2.314-3.276-5.473-5.882-9.235-7.55-3.539-1.569-7.334-2.189-11.085-1.855-3.257 0.29-5.259 3.73-4.069 6.776 0.816 2.091 2.914 3.334 5.153 3.173 2.015-0.145 4.048 0.205 5.948 1.047 2.268 1.006 4.143 2.626 5.45 4.669-0.968-2.167-0.301-4.785 1.718-6.196z"/>
<path class="st23" d="m38.918 323.54c-2.326 0.81-3.679 3.149-3.335 5.499 0.099 0.325 0.177 0.658 0.25 0.993 0.94 2.599 3.795 3.968 6.412 3.057 2.242-0.781 3.569-2.983 3.356-5.246-0.11-0.502-0.24-0.998-0.383-1.488-1.03-2.435-3.769-3.696-6.3-2.815z"/>
</svg>
